<svg xmlns="http://www.w3.org/2000/svg" viewBox="0 0 120 120" width="120" height="120"><title>CCG API</title><rect width="120" height="120" rx="27" fill="#6d4aff"/><g fill="#fff"><path d="M57.00 27.00L39.00 27.00A12 12 0 0 0 27.00 39.00L27.00 57.00A30.0 30.0 0 0 0 57.00 27.00Z"/><path d="M63.00 27.00L81.00 27.00A12 12 0 0 1 93.00 39.00L93.00 57.00A30.0 30.0 0 0 1 63.00 27.00Z"/><path d="M57.00 93.00L39.00 93.00A12 12 0 0 1 27.00 81.00L27.00 63.00A30.0 30.0 0 0 1 57.00 93.00Z"/><path d="M63.00 93.00L81.00 93.00A12 12 0 0 0 93.00 81.00L93.00 63.00A30.0 30.0 0 0 0 63.00 93.00Z"/></g></svg>
